<svg width="25" height="24" viewBox="0 0 25 24" fill="none" xmlns="http://www.w3.org/2000/svg">
<path d="M20.87 21.25C20.87 21.4489 20.791 21.6397 20.6503 21.7803C20.5097 21.921 20.3189 22 20.12 22H4.88C4.68109 22 4.49033 21.921 4.34967 21.7803C4.20902 21.6397 4.13 21.4489 4.13 21.25C4.13 17.15 8.63 13.97 12.5 13.97C16.37 13.97 20.87 17.15 20.87 21.25ZM17.6 7.11C17.598 8.11826 17.2972 9.1033 16.7356 9.94068C16.174 10.7781 15.3768 11.4302 14.4448 11.8146C13.5127 12.1991 12.4876 12.2987 11.4989 12.1008C10.5103 11.9029 9.60249 11.4164 8.89024 10.7027C8.17799 9.98907 7.69326 9.08032 7.49728 8.09129C7.3013 7.10226 7.40288 6.07733 7.78918 5.14601C8.17548 4.21469 8.82917 3.41877 9.66764 2.85882C10.5061 2.29886 11.4917 2 12.5 2C13.8535 2.00265 15.1507 2.54219 16.1069 3.50022C17.063 4.45824 17.6 5.75647 17.6 7.11Z" fill="black"/>
</svg>
