<svg width="25" height="24" viewBox="0 0 25 24" fill="none" xmlns="http://www.w3.org/2000/svg">
<path d="M12.5001 2C10.6435 2 8.86306 2.7375 7.5503 4.05025C6.23755 5.36301 5.50005 7.14348 5.50005 9V12.528C5.5002 12.6831 5.46425 12.8362 5.39505 12.975L3.67805 16.408C3.59418 16.5757 3.55457 16.7621 3.563 16.9494C3.57143 17.1368 3.6276 17.3188 3.7262 17.4783C3.82479 17.6379 3.96252 17.7695 4.12632 17.8608C4.29011 17.9521 4.47453 18 4.66205 18H20.3381C20.5256 18 20.71 17.9521 20.8738 17.8608C21.0376 17.7695 21.1753 17.6379 21.2739 17.4783C21.3725 17.3188 21.4287 17.1368 21.4371 16.9494C21.4455 16.7621 21.4059 16.5757 21.3221 16.408L19.6061 12.975C19.5365 12.8362 19.5002 12.6832 19.5001 12.528V9C19.5001 7.14348 18.7626 5.36301 17.4498 4.05025C16.137 2.7375 14.3566 2 12.5001 2ZM12.5001 21C11.8794 21.0003 11.2739 20.8081 10.7671 20.4499C10.2602 20.0917 9.87694 19.5852 9.67005 19H15.3301C15.1232 19.5852 14.7399 20.0917 14.233 20.4499C13.7262 20.8081 13.1207 21.0003 12.5001 21Z" fill="black"/>
</svg>
